M48
; DRILL file {KiCad 8.0.4} date 2024-11-10T13:13:09-0800
; FORMAT={-:-/ absolute / inch / decimal}
; #@! TF.CreationDate,2024-11-10T13:13:09-08:00
; #@! TF.GenerationSoftware,Kicad,Pcbnew,8.0.4
; #@! TF.FileFunction,Plated,1,2,PTH
FMAT,2
INCH
; #@! TA.AperFunction,Plated,PTH,ViaDrill
T1C0.0118
; #@! TA.AperFunction,Plated,PTH,ComponentDrill
T2C0.0197
; #@! TA.AperFunction,Plated,PTH,ComponentDrill
T3C0.0256
; #@! TA.AperFunction,Plated,PTH,ComponentDrill
T4C0.0315
; #@! TA.AperFunction,Plated,PTH,ComponentDrill
T5C0.0335
; #@! TA.AperFunction,Plated,PTH,ComponentDrill
T6C0.0394
; #@! TA.AperFunction,Plated,PTH,ComponentDrill
T7C0.0433
; #@! TA.AperFunction,Plated,PTH,ComponentDrill
T8C0.0472
%
G90
G05
T1
X3.3543Y-3.4685
X3.374Y-3.8819
X3.8504Y-3.563
X3.8583Y-4.0079
X3.8622Y-3.3937
X3.9606Y-4.061
X4.4449Y-4.3228
X4.4803Y-3.4646
X5.0118Y-3.5039
X5.1811Y-4.1575
X5.3976Y-4.1294
X5.4134Y-4.3504
X5.4921Y-4.1732
X5.5157Y-4.1524
X5.5737Y-4.2154
X5.6102Y-4.063
X5.6411Y-3.1687
X5.7402Y-4.1378
X5.7638Y-4.0512
X5.7933Y-4.1811
X5.9016Y-3.1693
X5.9921Y-4.1378
X6.0394Y-3.2303
X6.0906Y-4.248
X6.1988Y-4.2185
X6.2756Y-3.2559
X6.3543Y-3.2165
X6.3858Y-3.2874
T3
X4.8307Y-3.4803
X4.8307Y-3.5303
T4
X4.165Y-3.6264
X4.165Y-3.7264
X4.6469Y-3.4724
X4.6469Y-3.5511
X4.6469Y-3.6299
X4.7256Y-3.4724
X4.7256Y-3.5511
X4.7256Y-3.6299
T5
X6.1496Y-3.6772
X6.3465Y-3.6772
T6
X3.4035Y-3.2539
X3.4213Y-4.1024
X3.5669Y-4.1313
X3.5669Y-4.2313
X3.6669Y-4.1313
X3.6669Y-4.2313
X3.7669Y-4.1313
X3.7669Y-4.2313
X3.8669Y-4.1313
X3.8669Y-4.2313
X3.9547Y-3.2539
X3.9669Y-4.1313
X3.9669Y-4.2313
X4.0669Y-4.1313
X4.0669Y-4.2313
X6.4134Y-4.1004
T7
X4.1362Y-3.3764
X4.1362Y-3.9764
X4.2362Y-3.3764
X4.2362Y-3.4764
X4.2362Y-3.9764
X4.3362Y-3.3764
X4.3362Y-3.9764
X4.3842Y-3.8563
X4.4362Y-3.3764
X4.4362Y-3.9764
X4.4842Y-3.8563
X4.5362Y-3.3764
X4.5362Y-3.9764
X4.5842Y-3.8563
X4.6362Y-3.3764
X4.6362Y-3.9764
X4.6842Y-3.8563
X4.7362Y-3.3764
X4.7362Y-3.9764
X4.7842Y-3.8563
X4.8362Y-3.3764
X4.8362Y-3.9764
X4.9362Y-3.3764
X4.9362Y-3.9764
X5.0362Y-3.3764
X5.0362Y-3.9764
X5.1362Y-3.3764
X5.1362Y-3.9764
X5.2362Y-3.3764
X5.2362Y-3.9764
X5.3362Y-3.3764
X5.3362Y-3.9764
X5.4362Y-3.3764
X5.4362Y-3.9764
X5.5362Y-3.3764
X5.5362Y-3.9764
X5.6362Y-3.3764
X5.6362Y-3.9764
X5.7362Y-3.3764
X5.7362Y-3.9764
X5.8362Y-3.3764
X5.8362Y-3.9764
X5.9362Y-3.3764
X5.9362Y-3.4764
X5.9362Y-3.5764
X5.9362Y-3.6764
X5.9362Y-3.7764
X5.9362Y-3.8764
X5.9362Y-3.9764
X6.0362Y-3.3764
X6.0362Y-3.9764
X6.1362Y-3.3764
X6.1362Y-3.9764
X6.2362Y-3.3764
X6.2362Y-3.9764
X6.3362Y-3.3764
X6.3362Y-3.9764
X6.4362Y-3.3764
X6.4362Y-3.9764
T8
X4.311Y-3.252
X4.4449Y-4.1024
X4.4488Y-3.252
X4.5827Y-4.1024
X4.5866Y-3.252
X4.7205Y-4.1024
X4.7244Y-3.252
X4.8583Y-4.1024
X4.8622Y-3.252
X5.0Y-3.252
X5.1378Y-3.252
X5.2756Y-3.252
T2
G00X3.6378Y-3.0256
M15
G01X3.6378Y-3.0531
M16
G05
G00X3.8976Y-3.0256
M15
G01X3.8976Y-3.0531
M16
G05
M30
