%TF.GenerationSoftware,KiCad,Pcbnew,8.0.4*%
%TF.CreationDate,2024-11-10T13:19:24-08:00*%
%TF.ProjectId,v0.5,76302e35-2e6b-4696-9361-645f70636258,rev?*%
%TF.SameCoordinates,Original*%
%TF.FileFunction,Paste,Top*%
%TF.FilePolarity,Positive*%
%FSLAX46Y46*%
G04 Gerber Fmt 4.6, Leading zero omitted, Abs format (unit mm)*
G04 Created by KiCad (PCBNEW 8.0.4) date 2024-11-10 13:19:24*
%MOMM*%
%LPD*%
G01*
G04 APERTURE LIST*
G04 Aperture macros list*
%AMRoundRect*
0 Rectangle with rounded corners*
0 $1 Rounding radius*
0 $2 $3 $4 $5 $6 $7 $8 $9 X,Y pos of 4 corners*
0 Add a 4 corners polygon primitive as box body*
4,1,4,$2,$3,$4,$5,$6,$7,$8,$9,$2,$3,0*
0 Add four circle primitives for the rounded corners*
1,1,$1+$1,$2,$3*
1,1,$1+$1,$4,$5*
1,1,$1+$1,$6,$7*
1,1,$1+$1,$8,$9*
0 Add four rect primitives between the rounded corners*
20,1,$1+$1,$2,$3,$4,$5,0*
20,1,$1+$1,$4,$5,$6,$7,0*
20,1,$1+$1,$6,$7,$8,$9,0*
20,1,$1+$1,$8,$9,$2,$3,0*%
%AMFreePoly0*
4,1,21,1.372500,0.787500,0.862500,0.787500,0.862500,0.532500,1.372500,0.532500,1.372500,0.127500,0.862500,0.127500,0.862500,-0.127500,1.372500,-0.127500,1.372500,-0.532500,0.862500,-0.532500,0.862500,-0.787500,1.372500,-0.787500,1.372500,-1.195000,0.612500,-1.195000,0.612500,-1.117500,-0.862500,-1.117500,-0.862500,1.117500,0.612500,1.117500,0.612500,1.195000,1.372500,1.195000,
1.372500,0.787500,1.372500,0.787500,$1*%
G04 Aperture macros list end*
%ADD10C,0.010000*%
%ADD11RoundRect,0.250000X-0.450000X0.262500X-0.450000X-0.262500X0.450000X-0.262500X0.450000X0.262500X0*%
%ADD12R,0.990000X0.405000*%
%ADD13FreePoly0,180.000000*%
%ADD14RoundRect,0.250000X0.475000X-0.250000X0.475000X0.250000X-0.475000X0.250000X-0.475000X-0.250000X0*%
%ADD15RoundRect,0.250000X0.450000X-0.262500X0.450000X0.262500X-0.450000X0.262500X-0.450000X-0.262500X0*%
%ADD16RoundRect,0.250000X-0.475000X0.250000X-0.475000X-0.250000X0.475000X-0.250000X0.475000X0.250000X0*%
%ADD17RoundRect,0.250000X0.262500X0.450000X-0.262500X0.450000X-0.262500X-0.450000X0.262500X-0.450000X0*%
%ADD18RoundRect,0.218750X0.218750X0.256250X-0.218750X0.256250X-0.218750X-0.256250X0.218750X-0.256250X0*%
%ADD19RoundRect,0.150000X0.825000X0.150000X-0.825000X0.150000X-0.825000X-0.150000X0.825000X-0.150000X0*%
%ADD20R,0.550000X0.950000*%
%ADD21FreePoly0,0.000000*%
%ADD22R,1.500000X3.000000*%
%ADD23R,3.000000X1.500000*%
%ADD24RoundRect,0.100000X0.100000X0.575000X-0.100000X0.575000X-0.100000X-0.575000X0.100000X-0.575000X0*%
%ADD25O,0.900000X1.600000*%
%ADD26RoundRect,0.250000X0.550000X0.450000X-0.550000X0.450000X-0.550000X-0.450000X0.550000X-0.450000X0*%
%ADD27RoundRect,0.250000X0.700000X0.700000X-0.700000X0.700000X-0.700000X-0.700000X0.700000X-0.700000X0*%
%ADD28RoundRect,0.150000X0.150000X-0.587500X0.150000X0.587500X-0.150000X0.587500X-0.150000X-0.587500X0*%
%ADD29R,0.449200X1.117800*%
%ADD30R,0.813000X0.500000*%
%ADD31RoundRect,0.250000X-0.262500X-0.450000X0.262500X-0.450000X0.262500X0.450000X-0.262500X0.450000X0*%
G04 APERTURE END LIST*
D10*
%TO.C,U4*%
X141062500Y-104569000D02*
X140612500Y-104569000D01*
X140612500Y-104331000D01*
X141062500Y-104331000D01*
X141062500Y-104569000D01*
G36*
X141062500Y-104569000D02*
G01*
X140612500Y-104569000D01*
X140612500Y-104331000D01*
X141062500Y-104331000D01*
X141062500Y-104569000D01*
G37*
X141062500Y-105069000D02*
X140612500Y-105069000D01*
X140612500Y-104831000D01*
X141062500Y-104831000D01*
X141062500Y-105069000D01*
G36*
X141062500Y-105069000D02*
G01*
X140612500Y-105069000D01*
X140612500Y-104831000D01*
X141062500Y-104831000D01*
X141062500Y-105069000D01*
G37*
X141062500Y-105569000D02*
X140612500Y-105569000D01*
X140612500Y-105331000D01*
X141062500Y-105331000D01*
X141062500Y-105569000D01*
G36*
X141062500Y-105569000D02*
G01*
X140612500Y-105569000D01*
X140612500Y-105331000D01*
X141062500Y-105331000D01*
X141062500Y-105569000D01*
G37*
X141062500Y-106069000D02*
X140612500Y-106069000D01*
X140612500Y-105831000D01*
X141062500Y-105831000D01*
X141062500Y-106069000D01*
G36*
X141062500Y-106069000D02*
G01*
X140612500Y-106069000D01*
X140612500Y-105831000D01*
X141062500Y-105831000D01*
X141062500Y-106069000D01*
G37*
X141619000Y-104512500D02*
X141381000Y-104512500D01*
X141381000Y-104062500D01*
X141619000Y-104062500D01*
X141619000Y-104512500D01*
G36*
X141619000Y-104512500D02*
G01*
X141381000Y-104512500D01*
X141381000Y-104062500D01*
X141619000Y-104062500D01*
X141619000Y-104512500D01*
G37*
X141619000Y-106337500D02*
X141381000Y-106337500D01*
X141381000Y-105887500D01*
X141619000Y-105887500D01*
X141619000Y-106337500D01*
G36*
X141619000Y-106337500D02*
G01*
X141381000Y-106337500D01*
X141381000Y-105887500D01*
X141619000Y-105887500D01*
X141619000Y-106337500D01*
G37*
X142119000Y-104512500D02*
X141881000Y-104512500D01*
X141881000Y-104062500D01*
X142119000Y-104062500D01*
X142119000Y-104512500D01*
G36*
X142119000Y-104512500D02*
G01*
X141881000Y-104512500D01*
X141881000Y-104062500D01*
X142119000Y-104062500D01*
X142119000Y-104512500D01*
G37*
X142119000Y-106337500D02*
X141881000Y-106337500D01*
X141881000Y-105887500D01*
X142119000Y-105887500D01*
X142119000Y-106337500D01*
G36*
X142119000Y-106337500D02*
G01*
X141881000Y-106337500D01*
X141881000Y-105887500D01*
X142119000Y-105887500D01*
X142119000Y-106337500D01*
G37*
X142619000Y-104512500D02*
X142381000Y-104512500D01*
X142381000Y-104062500D01*
X142619000Y-104062500D01*
X142619000Y-104512500D01*
G36*
X142619000Y-104512500D02*
G01*
X142381000Y-104512500D01*
X142381000Y-104062500D01*
X142619000Y-104062500D01*
X142619000Y-104512500D01*
G37*
X142619000Y-106337500D02*
X142381000Y-106337500D01*
X142381000Y-105887500D01*
X142619000Y-105887500D01*
X142619000Y-106337500D01*
G36*
X142619000Y-106337500D02*
G01*
X142381000Y-106337500D01*
X142381000Y-105887500D01*
X142619000Y-105887500D01*
X142619000Y-106337500D01*
G37*
X143387500Y-104569000D02*
X142937500Y-104569000D01*
X142937500Y-104331000D01*
X143387500Y-104331000D01*
X143387500Y-104569000D01*
G36*
X143387500Y-104569000D02*
G01*
X142937500Y-104569000D01*
X142937500Y-104331000D01*
X143387500Y-104331000D01*
X143387500Y-104569000D01*
G37*
X143387500Y-105069000D02*
X142937500Y-105069000D01*
X142937500Y-104831000D01*
X143387500Y-104831000D01*
X143387500Y-105069000D01*
G36*
X143387500Y-105069000D02*
G01*
X142937500Y-105069000D01*
X142937500Y-104831000D01*
X143387500Y-104831000D01*
X143387500Y-105069000D01*
G37*
X143387500Y-105569000D02*
X142937500Y-105569000D01*
X142937500Y-105331000D01*
X143387500Y-105331000D01*
X143387500Y-105569000D01*
G36*
X143387500Y-105569000D02*
G01*
X142937500Y-105569000D01*
X142937500Y-105331000D01*
X143387500Y-105331000D01*
X143387500Y-105569000D01*
G37*
X143387500Y-106069000D02*
X142937500Y-106069000D01*
X142937500Y-105831000D01*
X143387500Y-105831000D01*
X143387500Y-106069000D01*
G36*
X143387500Y-106069000D02*
G01*
X142937500Y-106069000D01*
X142937500Y-105831000D01*
X143387500Y-105831000D01*
X143387500Y-106069000D01*
G37*
%TD*%
D11*
%TO.C,R22*%
X142700000Y-87987500D03*
X142700000Y-89812500D03*
%TD*%
D12*
%TO.C,Q2*%
X150700000Y-79700000D03*
X150700000Y-79040000D03*
X150700000Y-78380000D03*
X150700000Y-77720000D03*
D13*
X148707500Y-78710000D03*
%TD*%
D14*
%TO.C,C6*%
X145300000Y-110150000D03*
X145300000Y-108250000D03*
%TD*%
D15*
%TO.C,R7*%
X159400000Y-83512500D03*
X159400000Y-81687500D03*
%TD*%
D16*
%TO.C,C9*%
X132900000Y-103650000D03*
X132900000Y-105550000D03*
%TD*%
D14*
%TO.C,C7*%
X143300000Y-110150000D03*
X143300000Y-108250000D03*
%TD*%
D16*
%TO.C,C3*%
X155400000Y-81150000D03*
X155400000Y-83050000D03*
%TD*%
D17*
%TO.C,R8*%
X114612500Y-90000000D03*
X112787500Y-90000000D03*
%TD*%
D14*
%TO.C,C8*%
X141200000Y-110150000D03*
X141200000Y-108250000D03*
%TD*%
D11*
%TO.C,R3*%
X127300000Y-87987500D03*
X127300000Y-89812500D03*
%TD*%
D18*
%TO.C,D1*%
X133487500Y-108400000D03*
X131912500Y-108400000D03*
%TD*%
D19*
%TO.C,U3*%
X158175000Y-79805000D03*
X158175000Y-78535000D03*
X158175000Y-77265000D03*
X158175000Y-75995000D03*
X153225000Y-75995000D03*
X153225000Y-77265000D03*
X153225000Y-78535000D03*
X153225000Y-79805000D03*
%TD*%
D16*
%TO.C,C1*%
X151122500Y-104077500D03*
X151122500Y-105977500D03*
%TD*%
D11*
%TO.C,R21*%
X144600000Y-87987500D03*
X144600000Y-89812500D03*
%TD*%
D15*
%TO.C,R4*%
X147400000Y-110112500D03*
X147400000Y-108287500D03*
%TD*%
D11*
%TO.C,R14*%
X148400000Y-87987500D03*
X148400000Y-89812500D03*
%TD*%
D18*
%TO.C,D2*%
X133487500Y-109900000D03*
X131912500Y-109900000D03*
%TD*%
D15*
%TO.C,R5*%
X163500000Y-89812500D03*
X163500000Y-87987500D03*
%TD*%
D20*
%TO.C,U1*%
X148875000Y-104025000D03*
X147625000Y-104025000D03*
X146375000Y-104025000D03*
X145125000Y-104025000D03*
X145125000Y-106175000D03*
X146375000Y-106175000D03*
X147625000Y-106175000D03*
X148875000Y-106175000D03*
%TD*%
D12*
%TO.C,Q5*%
X142457500Y-77715000D03*
X142457500Y-78375000D03*
X142457500Y-79035000D03*
X142457500Y-79695000D03*
D21*
X144450000Y-78705000D03*
%TD*%
D22*
%TO.C,U5*%
X96700000Y-86180000D03*
X94800000Y-86180000D03*
X92900000Y-86180000D03*
X91000000Y-86180000D03*
X89100000Y-86180000D03*
D23*
X85700000Y-89580000D03*
X85700000Y-91480000D03*
X85700000Y-93380000D03*
X85700000Y-95280000D03*
X85700000Y-97180000D03*
D22*
X89100000Y-100580000D03*
X91000000Y-100580000D03*
X92900000Y-100580000D03*
X94800000Y-100580000D03*
X96700000Y-100580000D03*
D23*
X100100000Y-97180000D03*
X100100000Y-95280000D03*
X100100000Y-93380000D03*
X100100000Y-91480000D03*
X100100000Y-89580000D03*
%TD*%
D15*
%TO.C,R16*%
X153300000Y-89825000D03*
X153300000Y-88000000D03*
%TD*%
%TO.C,R2*%
X125400000Y-89812500D03*
X125400000Y-87987500D03*
%TD*%
D18*
%TO.C,D3*%
X133487500Y-111400000D03*
X131912500Y-111400000D03*
%TD*%
D12*
%TO.C,Q4*%
X142457500Y-81310000D03*
X142457500Y-81970000D03*
X142457500Y-82630000D03*
X142457500Y-83290000D03*
D21*
X144450000Y-82300000D03*
%TD*%
D24*
%TO.C,J2*%
X97000000Y-79875000D03*
X96350000Y-79875000D03*
X95700000Y-79875000D03*
X95050000Y-79875000D03*
X94400000Y-79875000D03*
D25*
X99000000Y-77200000D03*
D26*
X98900000Y-79650000D03*
D27*
X96900000Y-77200000D03*
X94500000Y-77200000D03*
D26*
X92500000Y-79650000D03*
D25*
X92400000Y-77200000D03*
%TD*%
D28*
%TO.C,Q1*%
X161250000Y-83537500D03*
X163150000Y-83537500D03*
X162200000Y-81662500D03*
%TD*%
D29*
%TO.C,U6*%
X138700001Y-103829099D03*
X137900000Y-103829099D03*
X137099999Y-103829099D03*
X136300001Y-103829099D03*
X135500000Y-103829099D03*
X134700001Y-103829099D03*
D30*
X134981502Y-105200000D03*
D29*
X134699999Y-106570901D03*
X135500000Y-106570901D03*
X136300001Y-106570901D03*
X137099999Y-106570901D03*
X137900000Y-106570901D03*
X138699999Y-106570901D03*
D30*
X138418498Y-105200000D03*
%TD*%
D15*
%TO.C,R1*%
X139100000Y-110112500D03*
X139100000Y-108287500D03*
%TD*%
D11*
%TO.C,R15*%
X146500000Y-87987500D03*
X146500000Y-89812500D03*
%TD*%
D12*
%TO.C,Q3*%
X150700000Y-83300000D03*
X150700000Y-82640000D03*
X150700000Y-81980000D03*
X150700000Y-81320000D03*
D13*
X148707500Y-82310000D03*
%TD*%
D16*
%TO.C,C2*%
X153400000Y-81150000D03*
X153400000Y-83050000D03*
%TD*%
D15*
%TO.C,R6*%
X149300000Y-110112500D03*
X149300000Y-108287500D03*
%TD*%
D31*
%TO.C,R9*%
X112787500Y-88000000D03*
X114612500Y-88000000D03*
%TD*%
M02*
