%TF.GenerationSoftware,KiCad,Pcbnew,8.0.4*%
%TF.CreationDate,2024-11-10T13:12:41-08:00*%
%TF.ProjectId,v0.5,76302e35-2e6b-4696-9361-645f70636258,rev?*%
%TF.SameCoordinates,Original*%
%TF.FileFunction,Legend,Bot*%
%TF.FilePolarity,Positive*%
%FSLAX46Y46*%
G04 Gerber Fmt 4.6, Leading zero omitted, Abs format (unit mm)*
G04 Created by KiCad (PCBNEW 8.0.4) date 2024-11-10 13:12:41*
%MOMM*%
%LPD*%
G01*
G04 APERTURE LIST*
%ADD10C,0.100000*%
%ADD11C,0.160000*%
%ADD12C,0.200000*%
%ADD13C,0.150000*%
%ADD14C,0.120000*%
%ADD15C,0.152400*%
%ADD16C,0.127000*%
G04 APERTURE END LIST*
D10*
X115100000Y-74650000D02*
X121500000Y-74650000D01*
X121500000Y-84400000D01*
X115100000Y-84400000D01*
X115100000Y-74650000D01*
X128800000Y-89670000D02*
X128800000Y-88400000D01*
X129100000Y-74650000D02*
X135500000Y-74650000D01*
X135500000Y-84400000D01*
X129100000Y-84400000D01*
X129100000Y-74650000D01*
X89100000Y-79800000D02*
X87700000Y-78400000D01*
X87700000Y-78800000D02*
X87700000Y-78400000D01*
X88100000Y-78400000D01*
X87700000Y-78800000D01*
G36*
X87700000Y-78800000D02*
G01*
X87700000Y-78400000D01*
X88100000Y-78400000D01*
X87700000Y-78800000D01*
G37*
X122100000Y-108100000D02*
X121000000Y-108600000D01*
X111300000Y-102000000D02*
X117900000Y-102000000D01*
X117900000Y-111750000D01*
X111300000Y-111750000D01*
X111300000Y-102000000D01*
X128500000Y-88400000D02*
X128800000Y-88400000D01*
X118400000Y-102000000D02*
X125100000Y-102000000D01*
X125100000Y-111750000D01*
X118400000Y-111750000D01*
X118400000Y-102000000D01*
X122100000Y-74650000D02*
X128500000Y-74650000D01*
X128500000Y-84400000D01*
X122100000Y-84400000D01*
X122100000Y-74650000D01*
X123400000Y-106200000D02*
X123400000Y-108600000D01*
X121000000Y-108600000D02*
X119900000Y-108600000D01*
X90800000Y-79800000D02*
X89100000Y-79800000D01*
X128500000Y-89670000D02*
X128800000Y-89670000D01*
X108100000Y-74650000D02*
X114500000Y-74650000D01*
X114500000Y-84400000D01*
X108100000Y-84400000D01*
X108100000Y-74650000D01*
X123400000Y-108600000D02*
X122300000Y-108600000D01*
X119900000Y-106200000D02*
X119900000Y-108600000D01*
D11*
X116542727Y-107104761D02*
X116580822Y-107219047D01*
X116580822Y-107219047D02*
X116618918Y-107257142D01*
X116618918Y-107257142D02*
X116695108Y-107295238D01*
X116695108Y-107295238D02*
X116809394Y-107295238D01*
X116809394Y-107295238D02*
X116885584Y-107257142D01*
X116885584Y-107257142D02*
X116923680Y-107219047D01*
X116923680Y-107219047D02*
X116961775Y-107142857D01*
X116961775Y-107142857D02*
X116961775Y-106838095D01*
X116961775Y-106838095D02*
X116161775Y-106838095D01*
X116161775Y-106838095D02*
X116161775Y-107104761D01*
X116161775Y-107104761D02*
X116199870Y-107180952D01*
X116199870Y-107180952D02*
X116237965Y-107219047D01*
X116237965Y-107219047D02*
X116314156Y-107257142D01*
X116314156Y-107257142D02*
X116390346Y-107257142D01*
X116390346Y-107257142D02*
X116466537Y-107219047D01*
X116466537Y-107219047D02*
X116504632Y-107180952D01*
X116504632Y-107180952D02*
X116542727Y-107104761D01*
X116542727Y-107104761D02*
X116542727Y-106838095D01*
X116733203Y-107599999D02*
X116733203Y-107980952D01*
X116961775Y-107523809D02*
X116161775Y-107790476D01*
X116161775Y-107790476D02*
X116961775Y-108057142D01*
X116161775Y-108209523D02*
X116161775Y-108666666D01*
X116961775Y-108438094D02*
X116161775Y-108438094D01*
X116161775Y-108819047D02*
X116161775Y-109276190D01*
X116961775Y-109047618D02*
X116161775Y-109047618D01*
X116657013Y-110152381D02*
X116657013Y-110761905D01*
X123502380Y-110117798D02*
X123502380Y-109317798D01*
X123502380Y-109317798D02*
X123197618Y-109317798D01*
X123197618Y-109317798D02*
X123121428Y-109355893D01*
X123121428Y-109355893D02*
X123083333Y-109393988D01*
X123083333Y-109393988D02*
X123045237Y-109470179D01*
X123045237Y-109470179D02*
X123045237Y-109584464D01*
X123045237Y-109584464D02*
X123083333Y-109660655D01*
X123083333Y-109660655D02*
X123121428Y-109698750D01*
X123121428Y-109698750D02*
X123197618Y-109736845D01*
X123197618Y-109736845D02*
X123502380Y-109736845D01*
X122549999Y-109317798D02*
X122397618Y-109317798D01*
X122397618Y-109317798D02*
X122321428Y-109355893D01*
X122321428Y-109355893D02*
X122245237Y-109432083D01*
X122245237Y-109432083D02*
X122207142Y-109584464D01*
X122207142Y-109584464D02*
X122207142Y-109851131D01*
X122207142Y-109851131D02*
X122245237Y-110003512D01*
X122245237Y-110003512D02*
X122321428Y-110079703D01*
X122321428Y-110079703D02*
X122397618Y-110117798D01*
X122397618Y-110117798D02*
X122549999Y-110117798D01*
X122549999Y-110117798D02*
X122626190Y-110079703D01*
X122626190Y-110079703D02*
X122702380Y-110003512D01*
X122702380Y-110003512D02*
X122740476Y-109851131D01*
X122740476Y-109851131D02*
X122740476Y-109584464D01*
X122740476Y-109584464D02*
X122702380Y-109432083D01*
X122702380Y-109432083D02*
X122626190Y-109355893D01*
X122626190Y-109355893D02*
X122549999Y-109317798D01*
X121940476Y-109317798D02*
X121750000Y-110117798D01*
X121750000Y-110117798D02*
X121597619Y-109546369D01*
X121597619Y-109546369D02*
X121445238Y-110117798D01*
X121445238Y-110117798D02*
X121254762Y-109317798D01*
X120949999Y-109698750D02*
X120683333Y-109698750D01*
X120569047Y-110117798D02*
X120949999Y-110117798D01*
X120949999Y-110117798D02*
X120949999Y-109317798D01*
X120949999Y-109317798D02*
X120569047Y-109317798D01*
X119769046Y-110117798D02*
X120035713Y-109736845D01*
X120226189Y-110117798D02*
X120226189Y-109317798D01*
X120226189Y-109317798D02*
X119921427Y-109317798D01*
X119921427Y-109317798D02*
X119845237Y-109355893D01*
X119845237Y-109355893D02*
X119807142Y-109393988D01*
X119807142Y-109393988D02*
X119769046Y-109470179D01*
X119769046Y-109470179D02*
X119769046Y-109584464D01*
X119769046Y-109584464D02*
X119807142Y-109660655D01*
X119807142Y-109660655D02*
X119845237Y-109698750D01*
X119845237Y-109698750D02*
X119921427Y-109736845D01*
X119921427Y-109736845D02*
X120226189Y-109736845D01*
X123369047Y-110986705D02*
X123102381Y-110986705D01*
X122988095Y-111405753D02*
X123369047Y-111405753D01*
X123369047Y-111405753D02*
X123369047Y-110605753D01*
X123369047Y-110605753D02*
X122988095Y-110605753D01*
X122645237Y-111405753D02*
X122645237Y-110605753D01*
X122645237Y-110605753D02*
X122188094Y-111405753D01*
X122188094Y-111405753D02*
X122188094Y-110605753D01*
X121845238Y-111177181D02*
X121464285Y-111177181D01*
X121921428Y-111405753D02*
X121654761Y-110605753D01*
X121654761Y-110605753D02*
X121388095Y-111405753D01*
X120854762Y-110986705D02*
X120740476Y-111024800D01*
X120740476Y-111024800D02*
X120702381Y-111062896D01*
X120702381Y-111062896D02*
X120664285Y-111139086D01*
X120664285Y-111139086D02*
X120664285Y-111253372D01*
X120664285Y-111253372D02*
X120702381Y-111329562D01*
X120702381Y-111329562D02*
X120740476Y-111367658D01*
X120740476Y-111367658D02*
X120816666Y-111405753D01*
X120816666Y-111405753D02*
X121121428Y-111405753D01*
X121121428Y-111405753D02*
X121121428Y-110605753D01*
X121121428Y-110605753D02*
X120854762Y-110605753D01*
X120854762Y-110605753D02*
X120778571Y-110643848D01*
X120778571Y-110643848D02*
X120740476Y-110681943D01*
X120740476Y-110681943D02*
X120702381Y-110758134D01*
X120702381Y-110758134D02*
X120702381Y-110834324D01*
X120702381Y-110834324D02*
X120740476Y-110910515D01*
X120740476Y-110910515D02*
X120778571Y-110948610D01*
X120778571Y-110948610D02*
X120854762Y-110986705D01*
X120854762Y-110986705D02*
X121121428Y-110986705D01*
X119940476Y-111405753D02*
X120321428Y-111405753D01*
X120321428Y-111405753D02*
X120321428Y-110605753D01*
X119673809Y-110986705D02*
X119407143Y-110986705D01*
X119292857Y-111405753D02*
X119673809Y-111405753D01*
X119673809Y-111405753D02*
X119673809Y-110605753D01*
X119673809Y-110605753D02*
X119292857Y-110605753D01*
D12*
X90647618Y-79591695D02*
X90647618Y-78791695D01*
X90647618Y-78791695D02*
X90380952Y-79363123D01*
X90380952Y-79363123D02*
X90114285Y-78791695D01*
X90114285Y-78791695D02*
X90114285Y-79591695D01*
X89771428Y-78867885D02*
X89733332Y-78829790D01*
X89733332Y-78829790D02*
X89657142Y-78791695D01*
X89657142Y-78791695D02*
X89466666Y-78791695D01*
X89466666Y-78791695D02*
X89390475Y-78829790D01*
X89390475Y-78829790D02*
X89352380Y-78867885D01*
X89352380Y-78867885D02*
X89314285Y-78944076D01*
X89314285Y-78944076D02*
X89314285Y-79020266D01*
X89314285Y-79020266D02*
X89352380Y-79134552D01*
X89352380Y-79134552D02*
X89809523Y-79591695D01*
X89809523Y-79591695D02*
X89314285Y-79591695D01*
D11*
X112842727Y-107104761D02*
X112880822Y-107219047D01*
X112880822Y-107219047D02*
X112918918Y-107257142D01*
X112918918Y-107257142D02*
X112995108Y-107295238D01*
X112995108Y-107295238D02*
X113109394Y-107295238D01*
X113109394Y-107295238D02*
X113185584Y-107257142D01*
X113185584Y-107257142D02*
X113223680Y-107219047D01*
X113223680Y-107219047D02*
X113261775Y-107142857D01*
X113261775Y-107142857D02*
X113261775Y-106838095D01*
X113261775Y-106838095D02*
X112461775Y-106838095D01*
X112461775Y-106838095D02*
X112461775Y-107104761D01*
X112461775Y-107104761D02*
X112499870Y-107180952D01*
X112499870Y-107180952D02*
X112537965Y-107219047D01*
X112537965Y-107219047D02*
X112614156Y-107257142D01*
X112614156Y-107257142D02*
X112690346Y-107257142D01*
X112690346Y-107257142D02*
X112766537Y-107219047D01*
X112766537Y-107219047D02*
X112804632Y-107180952D01*
X112804632Y-107180952D02*
X112842727Y-107104761D01*
X112842727Y-107104761D02*
X112842727Y-106838095D01*
X113033203Y-107599999D02*
X113033203Y-107980952D01*
X113261775Y-107523809D02*
X112461775Y-107790476D01*
X112461775Y-107790476D02*
X113261775Y-108057142D01*
X112461775Y-108209523D02*
X112461775Y-108666666D01*
X113261775Y-108438094D02*
X112461775Y-108438094D01*
X112461775Y-108819047D02*
X112461775Y-109276190D01*
X113261775Y-109047618D02*
X112461775Y-109047618D01*
X112957013Y-110152381D02*
X112957013Y-110761905D01*
X113261775Y-110457143D02*
X112652251Y-110457143D01*
X113204761Y-76043775D02*
X113204761Y-75243775D01*
X113204761Y-75243775D02*
X112938095Y-75815203D01*
X112938095Y-75815203D02*
X112671428Y-75243775D01*
X112671428Y-75243775D02*
X112671428Y-76043775D01*
X112328571Y-75815203D02*
X111947618Y-75815203D01*
X112404761Y-76043775D02*
X112138094Y-75243775D01*
X112138094Y-75243775D02*
X111871428Y-76043775D01*
X111604761Y-76043775D02*
X111604761Y-75243775D01*
X111223809Y-76043775D02*
X111223809Y-75243775D01*
X111223809Y-75243775D02*
X110766666Y-76043775D01*
X110766666Y-76043775D02*
X110766666Y-75243775D01*
X109357143Y-76043775D02*
X109814286Y-76043775D01*
X109585714Y-76043775D02*
X109585714Y-75243775D01*
X109585714Y-75243775D02*
X109661905Y-75358060D01*
X109661905Y-75358060D02*
X109738095Y-75434251D01*
X109738095Y-75434251D02*
X109814286Y-75472346D01*
X128419048Y-90861775D02*
X127961905Y-90861775D01*
X128190477Y-91661775D02*
X128190477Y-90861775D01*
X127695238Y-91242727D02*
X127428572Y-91242727D01*
X127314286Y-91661775D02*
X127695238Y-91661775D01*
X127695238Y-91661775D02*
X127695238Y-90861775D01*
X127695238Y-90861775D02*
X127314286Y-90861775D01*
X127009524Y-91623680D02*
X126895238Y-91661775D01*
X126895238Y-91661775D02*
X126704762Y-91661775D01*
X126704762Y-91661775D02*
X126628571Y-91623680D01*
X126628571Y-91623680D02*
X126590476Y-91585584D01*
X126590476Y-91585584D02*
X126552381Y-91509394D01*
X126552381Y-91509394D02*
X126552381Y-91433203D01*
X126552381Y-91433203D02*
X126590476Y-91357013D01*
X126590476Y-91357013D02*
X126628571Y-91318918D01*
X126628571Y-91318918D02*
X126704762Y-91280822D01*
X126704762Y-91280822D02*
X126857143Y-91242727D01*
X126857143Y-91242727D02*
X126933333Y-91204632D01*
X126933333Y-91204632D02*
X126971428Y-91166537D01*
X126971428Y-91166537D02*
X127009524Y-91090346D01*
X127009524Y-91090346D02*
X127009524Y-91014156D01*
X127009524Y-91014156D02*
X126971428Y-90937965D01*
X126971428Y-90937965D02*
X126933333Y-90899870D01*
X126933333Y-90899870D02*
X126857143Y-90861775D01*
X126857143Y-90861775D02*
X126666666Y-90861775D01*
X126666666Y-90861775D02*
X126552381Y-90899870D01*
X126323809Y-90861775D02*
X125866666Y-90861775D01*
X126095238Y-91661775D02*
X126095238Y-90861775D01*
X124990475Y-91661775D02*
X124990475Y-90861775D01*
X124990475Y-90861775D02*
X124723809Y-91433203D01*
X124723809Y-91433203D02*
X124457142Y-90861775D01*
X124457142Y-90861775D02*
X124457142Y-91661775D01*
X123923808Y-90861775D02*
X123771427Y-90861775D01*
X123771427Y-90861775D02*
X123695237Y-90899870D01*
X123695237Y-90899870D02*
X123619046Y-90976060D01*
X123619046Y-90976060D02*
X123580951Y-91128441D01*
X123580951Y-91128441D02*
X123580951Y-91395108D01*
X123580951Y-91395108D02*
X123619046Y-91547489D01*
X123619046Y-91547489D02*
X123695237Y-91623680D01*
X123695237Y-91623680D02*
X123771427Y-91661775D01*
X123771427Y-91661775D02*
X123923808Y-91661775D01*
X123923808Y-91661775D02*
X123999999Y-91623680D01*
X123999999Y-91623680D02*
X124076189Y-91547489D01*
X124076189Y-91547489D02*
X124114285Y-91395108D01*
X124114285Y-91395108D02*
X124114285Y-91128441D01*
X124114285Y-91128441D02*
X124076189Y-90976060D01*
X124076189Y-90976060D02*
X123999999Y-90899870D01*
X123999999Y-90899870D02*
X123923808Y-90861775D01*
X123238094Y-91661775D02*
X123238094Y-90861775D01*
X123238094Y-90861775D02*
X123047618Y-90861775D01*
X123047618Y-90861775D02*
X122933332Y-90899870D01*
X122933332Y-90899870D02*
X122857142Y-90976060D01*
X122857142Y-90976060D02*
X122819047Y-91052251D01*
X122819047Y-91052251D02*
X122780951Y-91204632D01*
X122780951Y-91204632D02*
X122780951Y-91318918D01*
X122780951Y-91318918D02*
X122819047Y-91471299D01*
X122819047Y-91471299D02*
X122857142Y-91547489D01*
X122857142Y-91547489D02*
X122933332Y-91623680D01*
X122933332Y-91623680D02*
X123047618Y-91661775D01*
X123047618Y-91661775D02*
X123238094Y-91661775D01*
X122438094Y-91242727D02*
X122171428Y-91242727D01*
X122057142Y-91661775D02*
X122438094Y-91661775D01*
X122438094Y-91661775D02*
X122438094Y-90861775D01*
X122438094Y-90861775D02*
X122057142Y-90861775D01*
X121195237Y-76043775D02*
X121195237Y-75243775D01*
X121195237Y-75243775D02*
X121004761Y-75243775D01*
X121004761Y-75243775D02*
X120890475Y-75281870D01*
X120890475Y-75281870D02*
X120814285Y-75358060D01*
X120814285Y-75358060D02*
X120776190Y-75434251D01*
X120776190Y-75434251D02*
X120738094Y-75586632D01*
X120738094Y-75586632D02*
X120738094Y-75700918D01*
X120738094Y-75700918D02*
X120776190Y-75853299D01*
X120776190Y-75853299D02*
X120814285Y-75929489D01*
X120814285Y-75929489D02*
X120890475Y-76005680D01*
X120890475Y-76005680D02*
X121004761Y-76043775D01*
X121004761Y-76043775D02*
X121195237Y-76043775D01*
X119938094Y-76043775D02*
X120204761Y-75662822D01*
X120395237Y-76043775D02*
X120395237Y-75243775D01*
X120395237Y-75243775D02*
X120090475Y-75243775D01*
X120090475Y-75243775D02*
X120014285Y-75281870D01*
X120014285Y-75281870D02*
X119976190Y-75319965D01*
X119976190Y-75319965D02*
X119938094Y-75396156D01*
X119938094Y-75396156D02*
X119938094Y-75510441D01*
X119938094Y-75510441D02*
X119976190Y-75586632D01*
X119976190Y-75586632D02*
X120014285Y-75624727D01*
X120014285Y-75624727D02*
X120090475Y-75662822D01*
X120090475Y-75662822D02*
X120395237Y-75662822D01*
X119442856Y-75243775D02*
X119290475Y-75243775D01*
X119290475Y-75243775D02*
X119214285Y-75281870D01*
X119214285Y-75281870D02*
X119138094Y-75358060D01*
X119138094Y-75358060D02*
X119099999Y-75510441D01*
X119099999Y-75510441D02*
X119099999Y-75777108D01*
X119099999Y-75777108D02*
X119138094Y-75929489D01*
X119138094Y-75929489D02*
X119214285Y-76005680D01*
X119214285Y-76005680D02*
X119290475Y-76043775D01*
X119290475Y-76043775D02*
X119442856Y-76043775D01*
X119442856Y-76043775D02*
X119519047Y-76005680D01*
X119519047Y-76005680D02*
X119595237Y-75929489D01*
X119595237Y-75929489D02*
X119633333Y-75777108D01*
X119633333Y-75777108D02*
X119633333Y-75510441D01*
X119633333Y-75510441D02*
X119595237Y-75358060D01*
X119595237Y-75358060D02*
X119519047Y-75281870D01*
X119519047Y-75281870D02*
X119442856Y-75243775D01*
X118338095Y-75281870D02*
X118414285Y-75243775D01*
X118414285Y-75243775D02*
X118528571Y-75243775D01*
X118528571Y-75243775D02*
X118642857Y-75281870D01*
X118642857Y-75281870D02*
X118719047Y-75358060D01*
X118719047Y-75358060D02*
X118757142Y-75434251D01*
X118757142Y-75434251D02*
X118795238Y-75586632D01*
X118795238Y-75586632D02*
X118795238Y-75700918D01*
X118795238Y-75700918D02*
X118757142Y-75853299D01*
X118757142Y-75853299D02*
X118719047Y-75929489D01*
X118719047Y-75929489D02*
X118642857Y-76005680D01*
X118642857Y-76005680D02*
X118528571Y-76043775D01*
X118528571Y-76043775D02*
X118452380Y-76043775D01*
X118452380Y-76043775D02*
X118338095Y-76005680D01*
X118338095Y-76005680D02*
X118299999Y-75967584D01*
X118299999Y-75967584D02*
X118299999Y-75700918D01*
X118299999Y-75700918D02*
X118452380Y-75700918D01*
X117957142Y-75243775D02*
X117957142Y-75891394D01*
X117957142Y-75891394D02*
X117919047Y-75967584D01*
X117919047Y-75967584D02*
X117880952Y-76005680D01*
X117880952Y-76005680D02*
X117804761Y-76043775D01*
X117804761Y-76043775D02*
X117652380Y-76043775D01*
X117652380Y-76043775D02*
X117576190Y-76005680D01*
X117576190Y-76005680D02*
X117538095Y-75967584D01*
X117538095Y-75967584D02*
X117499999Y-75891394D01*
X117499999Y-75891394D02*
X117499999Y-75243775D01*
X117119047Y-75624727D02*
X116852381Y-75624727D01*
X116738095Y-76043775D02*
X117119047Y-76043775D01*
X117119047Y-76043775D02*
X117119047Y-75243775D01*
X117119047Y-75243775D02*
X116738095Y-75243775D01*
X115366666Y-76043775D02*
X115823809Y-76043775D01*
X115595237Y-76043775D02*
X115595237Y-75243775D01*
X115595237Y-75243775D02*
X115671428Y-75358060D01*
X115671428Y-75358060D02*
X115747618Y-75434251D01*
X115747618Y-75434251D02*
X115823809Y-75472346D01*
X127204761Y-76043775D02*
X127204761Y-75243775D01*
X127204761Y-75243775D02*
X126938095Y-75815203D01*
X126938095Y-75815203D02*
X126671428Y-75243775D01*
X126671428Y-75243775D02*
X126671428Y-76043775D01*
X126328571Y-75815203D02*
X125947618Y-75815203D01*
X126404761Y-76043775D02*
X126138094Y-75243775D01*
X126138094Y-75243775D02*
X125871428Y-76043775D01*
X125604761Y-76043775D02*
X125604761Y-75243775D01*
X125223809Y-76043775D02*
X125223809Y-75243775D01*
X125223809Y-75243775D02*
X124766666Y-76043775D01*
X124766666Y-76043775D02*
X124766666Y-75243775D01*
X123814286Y-75319965D02*
X123776190Y-75281870D01*
X123776190Y-75281870D02*
X123700000Y-75243775D01*
X123700000Y-75243775D02*
X123509524Y-75243775D01*
X123509524Y-75243775D02*
X123433333Y-75281870D01*
X123433333Y-75281870D02*
X123395238Y-75319965D01*
X123395238Y-75319965D02*
X123357143Y-75396156D01*
X123357143Y-75396156D02*
X123357143Y-75472346D01*
X123357143Y-75472346D02*
X123395238Y-75586632D01*
X123395238Y-75586632D02*
X123852381Y-76043775D01*
X123852381Y-76043775D02*
X123357143Y-76043775D01*
X135195237Y-76043775D02*
X135195237Y-75243775D01*
X135195237Y-75243775D02*
X135004761Y-75243775D01*
X135004761Y-75243775D02*
X134890475Y-75281870D01*
X134890475Y-75281870D02*
X134814285Y-75358060D01*
X134814285Y-75358060D02*
X134776190Y-75434251D01*
X134776190Y-75434251D02*
X134738094Y-75586632D01*
X134738094Y-75586632D02*
X134738094Y-75700918D01*
X134738094Y-75700918D02*
X134776190Y-75853299D01*
X134776190Y-75853299D02*
X134814285Y-75929489D01*
X134814285Y-75929489D02*
X134890475Y-76005680D01*
X134890475Y-76005680D02*
X135004761Y-76043775D01*
X135004761Y-76043775D02*
X135195237Y-76043775D01*
X133938094Y-76043775D02*
X134204761Y-75662822D01*
X134395237Y-76043775D02*
X134395237Y-75243775D01*
X134395237Y-75243775D02*
X134090475Y-75243775D01*
X134090475Y-75243775D02*
X134014285Y-75281870D01*
X134014285Y-75281870D02*
X133976190Y-75319965D01*
X133976190Y-75319965D02*
X133938094Y-75396156D01*
X133938094Y-75396156D02*
X133938094Y-75510441D01*
X133938094Y-75510441D02*
X133976190Y-75586632D01*
X133976190Y-75586632D02*
X134014285Y-75624727D01*
X134014285Y-75624727D02*
X134090475Y-75662822D01*
X134090475Y-75662822D02*
X134395237Y-75662822D01*
X133442856Y-75243775D02*
X133290475Y-75243775D01*
X133290475Y-75243775D02*
X133214285Y-75281870D01*
X133214285Y-75281870D02*
X133138094Y-75358060D01*
X133138094Y-75358060D02*
X133099999Y-75510441D01*
X133099999Y-75510441D02*
X133099999Y-75777108D01*
X133099999Y-75777108D02*
X133138094Y-75929489D01*
X133138094Y-75929489D02*
X133214285Y-76005680D01*
X133214285Y-76005680D02*
X133290475Y-76043775D01*
X133290475Y-76043775D02*
X133442856Y-76043775D01*
X133442856Y-76043775D02*
X133519047Y-76005680D01*
X133519047Y-76005680D02*
X133595237Y-75929489D01*
X133595237Y-75929489D02*
X133633333Y-75777108D01*
X133633333Y-75777108D02*
X133633333Y-75510441D01*
X133633333Y-75510441D02*
X133595237Y-75358060D01*
X133595237Y-75358060D02*
X133519047Y-75281870D01*
X133519047Y-75281870D02*
X133442856Y-75243775D01*
X132338095Y-75281870D02*
X132414285Y-75243775D01*
X132414285Y-75243775D02*
X132528571Y-75243775D01*
X132528571Y-75243775D02*
X132642857Y-75281870D01*
X132642857Y-75281870D02*
X132719047Y-75358060D01*
X132719047Y-75358060D02*
X132757142Y-75434251D01*
X132757142Y-75434251D02*
X132795238Y-75586632D01*
X132795238Y-75586632D02*
X132795238Y-75700918D01*
X132795238Y-75700918D02*
X132757142Y-75853299D01*
X132757142Y-75853299D02*
X132719047Y-75929489D01*
X132719047Y-75929489D02*
X132642857Y-76005680D01*
X132642857Y-76005680D02*
X132528571Y-76043775D01*
X132528571Y-76043775D02*
X132452380Y-76043775D01*
X132452380Y-76043775D02*
X132338095Y-76005680D01*
X132338095Y-76005680D02*
X132299999Y-75967584D01*
X132299999Y-75967584D02*
X132299999Y-75700918D01*
X132299999Y-75700918D02*
X132452380Y-75700918D01*
X131957142Y-75243775D02*
X131957142Y-75891394D01*
X131957142Y-75891394D02*
X131919047Y-75967584D01*
X131919047Y-75967584D02*
X131880952Y-76005680D01*
X131880952Y-76005680D02*
X131804761Y-76043775D01*
X131804761Y-76043775D02*
X131652380Y-76043775D01*
X131652380Y-76043775D02*
X131576190Y-76005680D01*
X131576190Y-76005680D02*
X131538095Y-75967584D01*
X131538095Y-75967584D02*
X131499999Y-75891394D01*
X131499999Y-75891394D02*
X131499999Y-75243775D01*
X131119047Y-75624727D02*
X130852381Y-75624727D01*
X130738095Y-76043775D02*
X131119047Y-76043775D01*
X131119047Y-76043775D02*
X131119047Y-75243775D01*
X131119047Y-75243775D02*
X130738095Y-75243775D01*
X129823809Y-75319965D02*
X129785713Y-75281870D01*
X129785713Y-75281870D02*
X129709523Y-75243775D01*
X129709523Y-75243775D02*
X129519047Y-75243775D01*
X129519047Y-75243775D02*
X129442856Y-75281870D01*
X129442856Y-75281870D02*
X129404761Y-75319965D01*
X129404761Y-75319965D02*
X129366666Y-75396156D01*
X129366666Y-75396156D02*
X129366666Y-75472346D01*
X129366666Y-75472346D02*
X129404761Y-75586632D01*
X129404761Y-75586632D02*
X129861904Y-76043775D01*
X129861904Y-76043775D02*
X129366666Y-76043775D01*
D13*
X100916666Y-96679580D02*
X100964285Y-96727200D01*
X100964285Y-96727200D02*
X101107142Y-96774819D01*
X101107142Y-96774819D02*
X101202380Y-96774819D01*
X101202380Y-96774819D02*
X101345237Y-96727200D01*
X101345237Y-96727200D02*
X101440475Y-96631961D01*
X101440475Y-96631961D02*
X101488094Y-96536723D01*
X101488094Y-96536723D02*
X101535713Y-96346247D01*
X101535713Y-96346247D02*
X101535713Y-96203390D01*
X101535713Y-96203390D02*
X101488094Y-96012914D01*
X101488094Y-96012914D02*
X101440475Y-95917676D01*
X101440475Y-95917676D02*
X101345237Y-95822438D01*
X101345237Y-95822438D02*
X101202380Y-95774819D01*
X101202380Y-95774819D02*
X101107142Y-95774819D01*
X101107142Y-95774819D02*
X100964285Y-95822438D01*
X100964285Y-95822438D02*
X100916666Y-95870057D01*
X100059523Y-96108152D02*
X100059523Y-96774819D01*
X100297618Y-95727200D02*
X100535713Y-96441485D01*
X100535713Y-96441485D02*
X99916666Y-96441485D01*
X103533333Y-85631009D02*
X103866666Y-85631009D01*
X103866666Y-86154819D02*
X103866666Y-85154819D01*
X103866666Y-85154819D02*
X103390476Y-85154819D01*
X102485714Y-86154819D02*
X103057142Y-86154819D01*
X102771428Y-86154819D02*
X102771428Y-85154819D01*
X102771428Y-85154819D02*
X102866666Y-85297676D01*
X102866666Y-85297676D02*
X102961904Y-85392914D01*
X102961904Y-85392914D02*
X103057142Y-85440533D01*
X98073195Y-92790476D02*
X98720814Y-92790476D01*
X98720814Y-92790476D02*
X98797004Y-92828571D01*
X98797004Y-92828571D02*
X98835100Y-92866666D01*
X98835100Y-92866666D02*
X98873195Y-92942857D01*
X98873195Y-92942857D02*
X98873195Y-93095238D01*
X98873195Y-93095238D02*
X98835100Y-93171428D01*
X98835100Y-93171428D02*
X98797004Y-93209523D01*
X98797004Y-93209523D02*
X98720814Y-93247619D01*
X98720814Y-93247619D02*
X98073195Y-93247619D01*
X98149385Y-93590475D02*
X98111290Y-93628571D01*
X98111290Y-93628571D02*
X98073195Y-93704761D01*
X98073195Y-93704761D02*
X98073195Y-93895237D01*
X98073195Y-93895237D02*
X98111290Y-93971428D01*
X98111290Y-93971428D02*
X98149385Y-94009523D01*
X98149385Y-94009523D02*
X98225576Y-94047618D01*
X98225576Y-94047618D02*
X98301766Y-94047618D01*
X98301766Y-94047618D02*
X98416052Y-94009523D01*
X98416052Y-94009523D02*
X98873195Y-93552380D01*
X98873195Y-93552380D02*
X98873195Y-94047618D01*
X101365719Y-89560000D02*
X101603814Y-89560000D01*
X101508576Y-89321905D02*
X101603814Y-89560000D01*
X101603814Y-89560000D02*
X101508576Y-89798095D01*
X101794290Y-89417143D02*
X101603814Y-89560000D01*
X101603814Y-89560000D02*
X101794290Y-89702857D01*
X151414285Y-106786104D02*
X151452381Y-106824200D01*
X151452381Y-106824200D02*
X151566666Y-106862295D01*
X151566666Y-106862295D02*
X151642857Y-106862295D01*
X151642857Y-106862295D02*
X151757143Y-106824200D01*
X151757143Y-106824200D02*
X151833333Y-106748009D01*
X151833333Y-106748009D02*
X151871428Y-106671819D01*
X151871428Y-106671819D02*
X151909524Y-106519438D01*
X151909524Y-106519438D02*
X151909524Y-106405152D01*
X151909524Y-106405152D02*
X151871428Y-106252771D01*
X151871428Y-106252771D02*
X151833333Y-106176580D01*
X151833333Y-106176580D02*
X151757143Y-106100390D01*
X151757143Y-106100390D02*
X151642857Y-106062295D01*
X151642857Y-106062295D02*
X151566666Y-106062295D01*
X151566666Y-106062295D02*
X151452381Y-106100390D01*
X151452381Y-106100390D02*
X151414285Y-106138485D01*
X150652381Y-106862295D02*
X151109524Y-106862295D01*
X150880952Y-106862295D02*
X150880952Y-106062295D01*
X150880952Y-106062295D02*
X150957143Y-106176580D01*
X150957143Y-106176580D02*
X151033333Y-106252771D01*
X151033333Y-106252771D02*
X151109524Y-106290866D01*
X150157142Y-106062295D02*
X150080952Y-106062295D01*
X150080952Y-106062295D02*
X150004761Y-106100390D01*
X150004761Y-106100390D02*
X149966666Y-106138485D01*
X149966666Y-106138485D02*
X149928571Y-106214676D01*
X149928571Y-106214676D02*
X149890476Y-106367057D01*
X149890476Y-106367057D02*
X149890476Y-106557533D01*
X149890476Y-106557533D02*
X149928571Y-106709914D01*
X149928571Y-106709914D02*
X149966666Y-106786104D01*
X149966666Y-106786104D02*
X150004761Y-106824200D01*
X150004761Y-106824200D02*
X150080952Y-106862295D01*
X150080952Y-106862295D02*
X150157142Y-106862295D01*
X150157142Y-106862295D02*
X150233333Y-106824200D01*
X150233333Y-106824200D02*
X150271428Y-106786104D01*
X150271428Y-106786104D02*
X150309523Y-106709914D01*
X150309523Y-106709914D02*
X150347619Y-106557533D01*
X150347619Y-106557533D02*
X150347619Y-106367057D01*
X150347619Y-106367057D02*
X150309523Y-106214676D01*
X150309523Y-106214676D02*
X150271428Y-106138485D01*
X150271428Y-106138485D02*
X150233333Y-106100390D01*
X150233333Y-106100390D02*
X150157142Y-106062295D01*
X116764285Y-79479795D02*
X117030952Y-79098842D01*
X117221428Y-79479795D02*
X117221428Y-78679795D01*
X117221428Y-78679795D02*
X116916666Y-78679795D01*
X116916666Y-78679795D02*
X116840476Y-78717890D01*
X116840476Y-78717890D02*
X116802381Y-78755985D01*
X116802381Y-78755985D02*
X116764285Y-78832176D01*
X116764285Y-78832176D02*
X116764285Y-78946461D01*
X116764285Y-78946461D02*
X116802381Y-79022652D01*
X116802381Y-79022652D02*
X116840476Y-79060747D01*
X116840476Y-79060747D02*
X116916666Y-79098842D01*
X116916666Y-79098842D02*
X117221428Y-79098842D01*
X116002381Y-79479795D02*
X116459524Y-79479795D01*
X116230952Y-79479795D02*
X116230952Y-78679795D01*
X116230952Y-78679795D02*
X116307143Y-78794080D01*
X116307143Y-78794080D02*
X116383333Y-78870271D01*
X116383333Y-78870271D02*
X116459524Y-78908366D01*
X115240476Y-79479795D02*
X115697619Y-79479795D01*
X115469047Y-79479795D02*
X115469047Y-78679795D01*
X115469047Y-78679795D02*
X115545238Y-78794080D01*
X115545238Y-78794080D02*
X115621428Y-78870271D01*
X115621428Y-78870271D02*
X115697619Y-78908366D01*
X130764285Y-79479795D02*
X131030952Y-79098842D01*
X131221428Y-79479795D02*
X131221428Y-78679795D01*
X131221428Y-78679795D02*
X130916666Y-78679795D01*
X130916666Y-78679795D02*
X130840476Y-78717890D01*
X130840476Y-78717890D02*
X130802381Y-78755985D01*
X130802381Y-78755985D02*
X130764285Y-78832176D01*
X130764285Y-78832176D02*
X130764285Y-78946461D01*
X130764285Y-78946461D02*
X130802381Y-79022652D01*
X130802381Y-79022652D02*
X130840476Y-79060747D01*
X130840476Y-79060747D02*
X130916666Y-79098842D01*
X130916666Y-79098842D02*
X131221428Y-79098842D01*
X130002381Y-79479795D02*
X130459524Y-79479795D01*
X130230952Y-79479795D02*
X130230952Y-78679795D01*
X130230952Y-78679795D02*
X130307143Y-78794080D01*
X130307143Y-78794080D02*
X130383333Y-78870271D01*
X130383333Y-78870271D02*
X130459524Y-78908366D01*
X129545238Y-79022652D02*
X129621428Y-78984557D01*
X129621428Y-78984557D02*
X129659523Y-78946461D01*
X129659523Y-78946461D02*
X129697619Y-78870271D01*
X129697619Y-78870271D02*
X129697619Y-78832176D01*
X129697619Y-78832176D02*
X129659523Y-78755985D01*
X129659523Y-78755985D02*
X129621428Y-78717890D01*
X129621428Y-78717890D02*
X129545238Y-78679795D01*
X129545238Y-78679795D02*
X129392857Y-78679795D01*
X129392857Y-78679795D02*
X129316666Y-78717890D01*
X129316666Y-78717890D02*
X129278571Y-78755985D01*
X129278571Y-78755985D02*
X129240476Y-78832176D01*
X129240476Y-78832176D02*
X129240476Y-78870271D01*
X129240476Y-78870271D02*
X129278571Y-78946461D01*
X129278571Y-78946461D02*
X129316666Y-78984557D01*
X129316666Y-78984557D02*
X129392857Y-79022652D01*
X129392857Y-79022652D02*
X129545238Y-79022652D01*
X129545238Y-79022652D02*
X129621428Y-79060747D01*
X129621428Y-79060747D02*
X129659523Y-79098842D01*
X129659523Y-79098842D02*
X129697619Y-79175033D01*
X129697619Y-79175033D02*
X129697619Y-79327414D01*
X129697619Y-79327414D02*
X129659523Y-79403604D01*
X129659523Y-79403604D02*
X129621428Y-79441700D01*
X129621428Y-79441700D02*
X129545238Y-79479795D01*
X129545238Y-79479795D02*
X129392857Y-79479795D01*
X129392857Y-79479795D02*
X129316666Y-79441700D01*
X129316666Y-79441700D02*
X129278571Y-79403604D01*
X129278571Y-79403604D02*
X129240476Y-79327414D01*
X129240476Y-79327414D02*
X129240476Y-79175033D01*
X129240476Y-79175033D02*
X129278571Y-79098842D01*
X129278571Y-79098842D02*
X129316666Y-79060747D01*
X129316666Y-79060747D02*
X129392857Y-79022652D01*
X116764285Y-77729795D02*
X117030952Y-77348842D01*
X117221428Y-77729795D02*
X117221428Y-76929795D01*
X117221428Y-76929795D02*
X116916666Y-76929795D01*
X116916666Y-76929795D02*
X116840476Y-76967890D01*
X116840476Y-76967890D02*
X116802381Y-77005985D01*
X116802381Y-77005985D02*
X116764285Y-77082176D01*
X116764285Y-77082176D02*
X116764285Y-77196461D01*
X116764285Y-77196461D02*
X116802381Y-77272652D01*
X116802381Y-77272652D02*
X116840476Y-77310747D01*
X116840476Y-77310747D02*
X116916666Y-77348842D01*
X116916666Y-77348842D02*
X117221428Y-77348842D01*
X116002381Y-77729795D02*
X116459524Y-77729795D01*
X116230952Y-77729795D02*
X116230952Y-76929795D01*
X116230952Y-76929795D02*
X116307143Y-77044080D01*
X116307143Y-77044080D02*
X116383333Y-77120271D01*
X116383333Y-77120271D02*
X116459524Y-77158366D01*
X115735714Y-76929795D02*
X115240476Y-76929795D01*
X115240476Y-76929795D02*
X115507142Y-77234557D01*
X115507142Y-77234557D02*
X115392857Y-77234557D01*
X115392857Y-77234557D02*
X115316666Y-77272652D01*
X115316666Y-77272652D02*
X115278571Y-77310747D01*
X115278571Y-77310747D02*
X115240476Y-77386938D01*
X115240476Y-77386938D02*
X115240476Y-77577414D01*
X115240476Y-77577414D02*
X115278571Y-77653604D01*
X115278571Y-77653604D02*
X115316666Y-77691700D01*
X115316666Y-77691700D02*
X115392857Y-77729795D01*
X115392857Y-77729795D02*
X115621428Y-77729795D01*
X115621428Y-77729795D02*
X115697619Y-77691700D01*
X115697619Y-77691700D02*
X115735714Y-77653604D01*
X100916666Y-87479580D02*
X100964285Y-87527200D01*
X100964285Y-87527200D02*
X101107142Y-87574819D01*
X101107142Y-87574819D02*
X101202380Y-87574819D01*
X101202380Y-87574819D02*
X101345237Y-87527200D01*
X101345237Y-87527200D02*
X101440475Y-87431961D01*
X101440475Y-87431961D02*
X101488094Y-87336723D01*
X101488094Y-87336723D02*
X101535713Y-87146247D01*
X101535713Y-87146247D02*
X101535713Y-87003390D01*
X101535713Y-87003390D02*
X101488094Y-86812914D01*
X101488094Y-86812914D02*
X101440475Y-86717676D01*
X101440475Y-86717676D02*
X101345237Y-86622438D01*
X101345237Y-86622438D02*
X101202380Y-86574819D01*
X101202380Y-86574819D02*
X101107142Y-86574819D01*
X101107142Y-86574819D02*
X100964285Y-86622438D01*
X100964285Y-86622438D02*
X100916666Y-86670057D01*
X100011904Y-86574819D02*
X100488094Y-86574819D01*
X100488094Y-86574819D02*
X100535713Y-87051009D01*
X100535713Y-87051009D02*
X100488094Y-87003390D01*
X100488094Y-87003390D02*
X100392856Y-86955771D01*
X100392856Y-86955771D02*
X100154761Y-86955771D01*
X100154761Y-86955771D02*
X100059523Y-87003390D01*
X100059523Y-87003390D02*
X100011904Y-87051009D01*
X100011904Y-87051009D02*
X99964285Y-87146247D01*
X99964285Y-87146247D02*
X99964285Y-87384342D01*
X99964285Y-87384342D02*
X100011904Y-87479580D01*
X100011904Y-87479580D02*
X100059523Y-87527200D01*
X100059523Y-87527200D02*
X100154761Y-87574819D01*
X100154761Y-87574819D02*
X100392856Y-87574819D01*
X100392856Y-87574819D02*
X100488094Y-87527200D01*
X100488094Y-87527200D02*
X100535713Y-87479580D01*
X110014285Y-79479795D02*
X110280952Y-79098842D01*
X110471428Y-79479795D02*
X110471428Y-78679795D01*
X110471428Y-78679795D02*
X110166666Y-78679795D01*
X110166666Y-78679795D02*
X110090476Y-78717890D01*
X110090476Y-78717890D02*
X110052381Y-78755985D01*
X110052381Y-78755985D02*
X110014285Y-78832176D01*
X110014285Y-78832176D02*
X110014285Y-78946461D01*
X110014285Y-78946461D02*
X110052381Y-79022652D01*
X110052381Y-79022652D02*
X110090476Y-79060747D01*
X110090476Y-79060747D02*
X110166666Y-79098842D01*
X110166666Y-79098842D02*
X110471428Y-79098842D01*
X109252381Y-79479795D02*
X109709524Y-79479795D01*
X109480952Y-79479795D02*
X109480952Y-78679795D01*
X109480952Y-78679795D02*
X109557143Y-78794080D01*
X109557143Y-78794080D02*
X109633333Y-78870271D01*
X109633333Y-78870271D02*
X109709524Y-78908366D01*
X108757142Y-78679795D02*
X108680952Y-78679795D01*
X108680952Y-78679795D02*
X108604761Y-78717890D01*
X108604761Y-78717890D02*
X108566666Y-78755985D01*
X108566666Y-78755985D02*
X108528571Y-78832176D01*
X108528571Y-78832176D02*
X108490476Y-78984557D01*
X108490476Y-78984557D02*
X108490476Y-79175033D01*
X108490476Y-79175033D02*
X108528571Y-79327414D01*
X108528571Y-79327414D02*
X108566666Y-79403604D01*
X108566666Y-79403604D02*
X108604761Y-79441700D01*
X108604761Y-79441700D02*
X108680952Y-79479795D01*
X108680952Y-79479795D02*
X108757142Y-79479795D01*
X108757142Y-79479795D02*
X108833333Y-79441700D01*
X108833333Y-79441700D02*
X108871428Y-79403604D01*
X108871428Y-79403604D02*
X108909523Y-79327414D01*
X108909523Y-79327414D02*
X108947619Y-79175033D01*
X108947619Y-79175033D02*
X108947619Y-78984557D01*
X108947619Y-78984557D02*
X108909523Y-78832176D01*
X108909523Y-78832176D02*
X108871428Y-78755985D01*
X108871428Y-78755985D02*
X108833333Y-78717890D01*
X108833333Y-78717890D02*
X108757142Y-78679795D01*
X123814285Y-79479795D02*
X124080952Y-79098842D01*
X124271428Y-79479795D02*
X124271428Y-78679795D01*
X124271428Y-78679795D02*
X123966666Y-78679795D01*
X123966666Y-78679795D02*
X123890476Y-78717890D01*
X123890476Y-78717890D02*
X123852381Y-78755985D01*
X123852381Y-78755985D02*
X123814285Y-78832176D01*
X123814285Y-78832176D02*
X123814285Y-78946461D01*
X123814285Y-78946461D02*
X123852381Y-79022652D01*
X123852381Y-79022652D02*
X123890476Y-79060747D01*
X123890476Y-79060747D02*
X123966666Y-79098842D01*
X123966666Y-79098842D02*
X124271428Y-79098842D01*
X123052381Y-79479795D02*
X123509524Y-79479795D01*
X123280952Y-79479795D02*
X123280952Y-78679795D01*
X123280952Y-78679795D02*
X123357143Y-78794080D01*
X123357143Y-78794080D02*
X123433333Y-78870271D01*
X123433333Y-78870271D02*
X123509524Y-78908366D01*
X122785714Y-78679795D02*
X122252380Y-78679795D01*
X122252380Y-78679795D02*
X122595238Y-79479795D01*
X159214285Y-93762295D02*
X159595237Y-93762295D01*
X159595237Y-93762295D02*
X159595237Y-92962295D01*
X158985714Y-93724200D02*
X158871428Y-93762295D01*
X158871428Y-93762295D02*
X158680952Y-93762295D01*
X158680952Y-93762295D02*
X158604761Y-93724200D01*
X158604761Y-93724200D02*
X158566666Y-93686104D01*
X158566666Y-93686104D02*
X158528571Y-93609914D01*
X158528571Y-93609914D02*
X158528571Y-93533723D01*
X158528571Y-93533723D02*
X158566666Y-93457533D01*
X158566666Y-93457533D02*
X158604761Y-93419438D01*
X158604761Y-93419438D02*
X158680952Y-93381342D01*
X158680952Y-93381342D02*
X158833333Y-93343247D01*
X158833333Y-93343247D02*
X158909523Y-93305152D01*
X158909523Y-93305152D02*
X158947618Y-93267057D01*
X158947618Y-93267057D02*
X158985714Y-93190866D01*
X158985714Y-93190866D02*
X158985714Y-93114676D01*
X158985714Y-93114676D02*
X158947618Y-93038485D01*
X158947618Y-93038485D02*
X158909523Y-93000390D01*
X158909523Y-93000390D02*
X158833333Y-92962295D01*
X158833333Y-92962295D02*
X158642856Y-92962295D01*
X158642856Y-92962295D02*
X158528571Y-93000390D01*
X157766666Y-93762295D02*
X158223809Y-93762295D01*
X157995237Y-93762295D02*
X157995237Y-92962295D01*
X157995237Y-92962295D02*
X158071428Y-93076580D01*
X158071428Y-93076580D02*
X158147618Y-93152771D01*
X158147618Y-93152771D02*
X158223809Y-93190866D01*
X109814285Y-77729795D02*
X110080952Y-77348842D01*
X110271428Y-77729795D02*
X110271428Y-76929795D01*
X110271428Y-76929795D02*
X109966666Y-76929795D01*
X109966666Y-76929795D02*
X109890476Y-76967890D01*
X109890476Y-76967890D02*
X109852381Y-77005985D01*
X109852381Y-77005985D02*
X109814285Y-77082176D01*
X109814285Y-77082176D02*
X109814285Y-77196461D01*
X109814285Y-77196461D02*
X109852381Y-77272652D01*
X109852381Y-77272652D02*
X109890476Y-77310747D01*
X109890476Y-77310747D02*
X109966666Y-77348842D01*
X109966666Y-77348842D02*
X110271428Y-77348842D01*
X109052381Y-77729795D02*
X109509524Y-77729795D01*
X109280952Y-77729795D02*
X109280952Y-76929795D01*
X109280952Y-76929795D02*
X109357143Y-77044080D01*
X109357143Y-77044080D02*
X109433333Y-77120271D01*
X109433333Y-77120271D02*
X109509524Y-77158366D01*
X108747619Y-77005985D02*
X108709523Y-76967890D01*
X108709523Y-76967890D02*
X108633333Y-76929795D01*
X108633333Y-76929795D02*
X108442857Y-76929795D01*
X108442857Y-76929795D02*
X108366666Y-76967890D01*
X108366666Y-76967890D02*
X108328571Y-77005985D01*
X108328571Y-77005985D02*
X108290476Y-77082176D01*
X108290476Y-77082176D02*
X108290476Y-77158366D01*
X108290476Y-77158366D02*
X108328571Y-77272652D01*
X108328571Y-77272652D02*
X108785714Y-77729795D01*
X108785714Y-77729795D02*
X108290476Y-77729795D01*
X130764285Y-77729795D02*
X131030952Y-77348842D01*
X131221428Y-77729795D02*
X131221428Y-76929795D01*
X131221428Y-76929795D02*
X130916666Y-76929795D01*
X130916666Y-76929795D02*
X130840476Y-76967890D01*
X130840476Y-76967890D02*
X130802381Y-77005985D01*
X130802381Y-77005985D02*
X130764285Y-77082176D01*
X130764285Y-77082176D02*
X130764285Y-77196461D01*
X130764285Y-77196461D02*
X130802381Y-77272652D01*
X130802381Y-77272652D02*
X130840476Y-77310747D01*
X130840476Y-77310747D02*
X130916666Y-77348842D01*
X130916666Y-77348842D02*
X131221428Y-77348842D01*
X130459524Y-77005985D02*
X130421428Y-76967890D01*
X130421428Y-76967890D02*
X130345238Y-76929795D01*
X130345238Y-76929795D02*
X130154762Y-76929795D01*
X130154762Y-76929795D02*
X130078571Y-76967890D01*
X130078571Y-76967890D02*
X130040476Y-77005985D01*
X130040476Y-77005985D02*
X130002381Y-77082176D01*
X130002381Y-77082176D02*
X130002381Y-77158366D01*
X130002381Y-77158366D02*
X130040476Y-77272652D01*
X130040476Y-77272652D02*
X130497619Y-77729795D01*
X130497619Y-77729795D02*
X130002381Y-77729795D01*
X129507142Y-76929795D02*
X129430952Y-76929795D01*
X129430952Y-76929795D02*
X129354761Y-76967890D01*
X129354761Y-76967890D02*
X129316666Y-77005985D01*
X129316666Y-77005985D02*
X129278571Y-77082176D01*
X129278571Y-77082176D02*
X129240476Y-77234557D01*
X129240476Y-77234557D02*
X129240476Y-77425033D01*
X129240476Y-77425033D02*
X129278571Y-77577414D01*
X129278571Y-77577414D02*
X129316666Y-77653604D01*
X129316666Y-77653604D02*
X129354761Y-77691700D01*
X129354761Y-77691700D02*
X129430952Y-77729795D01*
X129430952Y-77729795D02*
X129507142Y-77729795D01*
X129507142Y-77729795D02*
X129583333Y-77691700D01*
X129583333Y-77691700D02*
X129621428Y-77653604D01*
X129621428Y-77653604D02*
X129659523Y-77577414D01*
X129659523Y-77577414D02*
X129697619Y-77425033D01*
X129697619Y-77425033D02*
X129697619Y-77234557D01*
X129697619Y-77234557D02*
X129659523Y-77082176D01*
X129659523Y-77082176D02*
X129621428Y-77005985D01*
X129621428Y-77005985D02*
X129583333Y-76967890D01*
X129583333Y-76967890D02*
X129507142Y-76929795D01*
X131754819Y-100488095D02*
X132564342Y-100488095D01*
X132564342Y-100488095D02*
X132659580Y-100535714D01*
X132659580Y-100535714D02*
X132707200Y-100583333D01*
X132707200Y-100583333D02*
X132754819Y-100678571D01*
X132754819Y-100678571D02*
X132754819Y-100869047D01*
X132754819Y-100869047D02*
X132707200Y-100964285D01*
X132707200Y-100964285D02*
X132659580Y-101011904D01*
X132659580Y-101011904D02*
X132564342Y-101059523D01*
X132564342Y-101059523D02*
X131754819Y-101059523D01*
X132183390Y-101678571D02*
X132135771Y-101583333D01*
X132135771Y-101583333D02*
X132088152Y-101535714D01*
X132088152Y-101535714D02*
X131992914Y-101488095D01*
X131992914Y-101488095D02*
X131945295Y-101488095D01*
X131945295Y-101488095D02*
X131850057Y-101535714D01*
X131850057Y-101535714D02*
X131802438Y-101583333D01*
X131802438Y-101583333D02*
X131754819Y-101678571D01*
X131754819Y-101678571D02*
X131754819Y-101869047D01*
X131754819Y-101869047D02*
X131802438Y-101964285D01*
X131802438Y-101964285D02*
X131850057Y-102011904D01*
X131850057Y-102011904D02*
X131945295Y-102059523D01*
X131945295Y-102059523D02*
X131992914Y-102059523D01*
X131992914Y-102059523D02*
X132088152Y-102011904D01*
X132088152Y-102011904D02*
X132135771Y-101964285D01*
X132135771Y-101964285D02*
X132183390Y-101869047D01*
X132183390Y-101869047D02*
X132183390Y-101678571D01*
X132183390Y-101678571D02*
X132231009Y-101583333D01*
X132231009Y-101583333D02*
X132278628Y-101535714D01*
X132278628Y-101535714D02*
X132373866Y-101488095D01*
X132373866Y-101488095D02*
X132564342Y-101488095D01*
X132564342Y-101488095D02*
X132659580Y-101535714D01*
X132659580Y-101535714D02*
X132707200Y-101583333D01*
X132707200Y-101583333D02*
X132754819Y-101678571D01*
X132754819Y-101678571D02*
X132754819Y-101869047D01*
X132754819Y-101869047D02*
X132707200Y-101964285D01*
X132707200Y-101964285D02*
X132659580Y-102011904D01*
X132659580Y-102011904D02*
X132564342Y-102059523D01*
X132564342Y-102059523D02*
X132373866Y-102059523D01*
X132373866Y-102059523D02*
X132278628Y-102011904D01*
X132278628Y-102011904D02*
X132231009Y-101964285D01*
X132231009Y-101964285D02*
X132183390Y-101869047D01*
X123814285Y-77729795D02*
X124080952Y-77348842D01*
X124271428Y-77729795D02*
X124271428Y-76929795D01*
X124271428Y-76929795D02*
X123966666Y-76929795D01*
X123966666Y-76929795D02*
X123890476Y-76967890D01*
X123890476Y-76967890D02*
X123852381Y-77005985D01*
X123852381Y-77005985D02*
X123814285Y-77082176D01*
X123814285Y-77082176D02*
X123814285Y-77196461D01*
X123814285Y-77196461D02*
X123852381Y-77272652D01*
X123852381Y-77272652D02*
X123890476Y-77310747D01*
X123890476Y-77310747D02*
X123966666Y-77348842D01*
X123966666Y-77348842D02*
X124271428Y-77348842D01*
X123052381Y-77729795D02*
X123509524Y-77729795D01*
X123280952Y-77729795D02*
X123280952Y-76929795D01*
X123280952Y-76929795D02*
X123357143Y-77044080D01*
X123357143Y-77044080D02*
X123433333Y-77120271D01*
X123433333Y-77120271D02*
X123509524Y-77158366D01*
X122671428Y-77729795D02*
X122519047Y-77729795D01*
X122519047Y-77729795D02*
X122442857Y-77691700D01*
X122442857Y-77691700D02*
X122404761Y-77653604D01*
X122404761Y-77653604D02*
X122328571Y-77539319D01*
X122328571Y-77539319D02*
X122290476Y-77386938D01*
X122290476Y-77386938D02*
X122290476Y-77082176D01*
X122290476Y-77082176D02*
X122328571Y-77005985D01*
X122328571Y-77005985D02*
X122366666Y-76967890D01*
X122366666Y-76967890D02*
X122442857Y-76929795D01*
X122442857Y-76929795D02*
X122595238Y-76929795D01*
X122595238Y-76929795D02*
X122671428Y-76967890D01*
X122671428Y-76967890D02*
X122709523Y-77005985D01*
X122709523Y-77005985D02*
X122747619Y-77082176D01*
X122747619Y-77082176D02*
X122747619Y-77272652D01*
X122747619Y-77272652D02*
X122709523Y-77348842D01*
X122709523Y-77348842D02*
X122671428Y-77386938D01*
X122671428Y-77386938D02*
X122595238Y-77425033D01*
X122595238Y-77425033D02*
X122442857Y-77425033D01*
X122442857Y-77425033D02*
X122366666Y-77386938D01*
X122366666Y-77386938D02*
X122328571Y-77348842D01*
X122328571Y-77348842D02*
X122290476Y-77272652D01*
D14*
%TO.C,J5*%
X110810000Y-105100000D02*
G75*
G02*
X106390000Y-105100000I-2210000J0D01*
G01*
X106390000Y-105100000D02*
G75*
G02*
X110810000Y-105100000I2210000J0D01*
G01*
X129910000Y-105100000D02*
G75*
G02*
X125490000Y-105100000I-2210000J0D01*
G01*
X125490000Y-105100000D02*
G75*
G02*
X129910000Y-105100000I2210000J0D01*
G01*
%TO.C,J4*%
X107410000Y-81700000D02*
G75*
G02*
X102990000Y-81700000I-2210000J0D01*
G01*
X102990000Y-81700000D02*
G75*
G02*
X107410000Y-81700000I2210000J0D01*
G01*
X140510000Y-81700000D02*
G75*
G02*
X136090000Y-81700000I-2210000J0D01*
G01*
X136090000Y-81700000D02*
G75*
G02*
X140510000Y-81700000I2210000J0D01*
G01*
%TO.C,C4*%
X100488748Y-97265000D02*
X101011252Y-97265000D01*
X100488748Y-98735000D02*
X101011252Y-98735000D01*
%TO.C,F1*%
X100438748Y-84990000D02*
X100961252Y-84990000D01*
X100438748Y-86410000D02*
X100961252Y-86410000D01*
D15*
%TO.C,U2*%
X95372949Y-98670500D02*
X97748500Y-98670500D01*
X97748500Y-88129500D02*
X95372949Y-88129500D01*
X97748500Y-92422100D02*
X97748500Y-88129500D01*
X97748500Y-94377900D02*
X99501100Y-94377900D01*
X97748500Y-98670500D02*
X97748500Y-94377900D01*
X99501100Y-92422100D02*
X97748500Y-92422100D01*
X99501100Y-94377900D02*
X99501100Y-92422100D01*
X99856700Y-90390100D02*
X98231100Y-90390100D01*
X99856700Y-91329900D02*
X98231100Y-91329900D01*
X99856700Y-95470100D02*
X98231100Y-95470100D01*
X99856700Y-96409900D02*
X98231100Y-96409900D01*
D14*
%TO.C,C10*%
X150165000Y-103838748D02*
X150165000Y-104361252D01*
X151635000Y-103838748D02*
X151635000Y-104361252D01*
%TO.C,R11*%
X118772936Y-78382500D02*
X119227064Y-78382500D01*
X118772936Y-79852500D02*
X119227064Y-79852500D01*
%TO.C,R18*%
X132772936Y-78382500D02*
X133227064Y-78382500D01*
X132772936Y-79852500D02*
X133227064Y-79852500D01*
%TO.C,R13*%
X119227064Y-76632500D02*
X118772936Y-76632500D01*
X119227064Y-78102500D02*
X118772936Y-78102500D01*
%TO.C,C5*%
X100488748Y-88065000D02*
X101011252Y-88065000D01*
X100488748Y-89535000D02*
X101011252Y-89535000D01*
%TO.C,R10*%
X111772936Y-78382500D02*
X112227064Y-78382500D01*
X111772936Y-79852500D02*
X112227064Y-79852500D01*
%TO.C,R17*%
X125772936Y-78382500D02*
X126227064Y-78382500D01*
X125772936Y-79852500D02*
X126227064Y-79852500D01*
D16*
%TO.C,LS1*%
X164800000Y-93400000D02*
G75*
G02*
X152600000Y-93400000I-6100000J0D01*
G01*
X152600000Y-93400000D02*
G75*
G02*
X164800000Y-93400000I6100000J0D01*
G01*
D14*
%TO.C,R12*%
X112227064Y-76632500D02*
X111772936Y-76632500D01*
X112227064Y-78102500D02*
X111772936Y-78102500D01*
%TO.C,J1*%
X121940000Y-90430000D02*
X121940000Y-89670000D01*
X122700000Y-90430000D02*
X121940000Y-90430000D01*
X123140000Y-87705000D02*
X124260000Y-87705000D01*
X123140000Y-87780323D02*
X123140000Y-87705000D01*
X124260000Y-87705000D02*
X124260000Y-90365000D01*
X124260000Y-88140000D02*
X128260000Y-88140000D01*
X124260000Y-89035000D02*
X123460000Y-89035000D01*
X124260000Y-89410000D02*
X128260000Y-89410000D01*
X124260000Y-90365000D02*
X123460000Y-90365000D01*
X128260000Y-88140000D02*
X128260000Y-88660000D01*
X128260000Y-88660000D02*
X124260000Y-88660000D01*
X128260000Y-89410000D02*
X128260000Y-89930000D01*
X128260000Y-89510000D02*
X124260000Y-89510000D01*
X128260000Y-89630000D02*
X124260000Y-89630000D01*
X128260000Y-89750000D02*
X124260000Y-89750000D01*
X128260000Y-89870000D02*
X124260000Y-89870000D01*
X128260000Y-89930000D02*
X124260000Y-89930000D01*
%TO.C,R20*%
X133227064Y-76632500D02*
X132772936Y-76632500D01*
X133227064Y-78102500D02*
X132772936Y-78102500D01*
%TO.C,U8*%
X133400000Y-109350000D02*
X133400000Y-93150000D01*
X133800000Y-109350000D02*
X133400000Y-109350000D01*
X149200000Y-109350000D02*
X149600000Y-109350000D01*
X149600000Y-93150000D02*
X149200000Y-93150000D01*
X149600000Y-109350000D02*
X149600000Y-93150000D01*
X133600000Y-92650000D02*
X133264000Y-92890000D01*
X133264000Y-92410000D01*
X133600000Y-92650000D01*
G36*
X133600000Y-92650000D02*
G01*
X133264000Y-92890000D01*
X133264000Y-92410000D01*
X133600000Y-92650000D01*
G37*
%TO.C,J6*%
X153350000Y-103565000D02*
X156050000Y-103565000D01*
X153940000Y-106285000D02*
X153300000Y-106285000D01*
X155460000Y-106285000D02*
X156100000Y-106285000D01*
X155460000Y-106915000D02*
X155460000Y-106285000D01*
%TO.C,R19*%
X126227064Y-76632500D02*
X125772936Y-76632500D01*
X126227064Y-78102500D02*
X125772936Y-78102500D01*
%TD*%
M02*
